# xmcd
#
# Track frame offsets: 
#        150
#        13642
#        27577
#        41447
#        54845
#        67667
#        84435
#        97422
#        112347
#        125482
#        139667
#        156025
#        171995
#        183135
#        195752
#        209460
#        224555
#        239957
#        254142
#        267920
#
# Disc length: 3712 seconds
#
# Revision: 2
# Processed by: cddbd v1.5.2PL0 Copyright (c) Steve Scherf et al.
# Submitted via: ExactAudioCopy v0.99pb4
#
DISCID=2a0e7e14
DTITLE=Benny Goodman - Swing Favourites Vol. 2 1936-1939
DYEAR=2002
DGENRE=Jazz
TTITLE0=Jam Session
TTITLE1=Bubgle Call Rag
TTITLE2=Undecided
TTITLE3=Star Dust
TTITLE4=Whispering
TTITLE5=I Can't Give You Anything But Love, Baby
TTITLE6=Sugarfoot Stomp
TTITLE7=Chloe
TTITLE8=Camel Hop
TTITLE9=The Lady's In Love With You
TTITLE10=Lullaby In Rhythm
TTITLE11=Sweet Sue, Just You
TTITLE12=I Never Knew
TTITLE13=Rosetta
TTITLE14=Show Your Linen, Miss Richardson
TTITLE15=One O'Clock Jump
TTITLE16=Don't Be That Way
TTITLE17=Wrappin' It Up
TTITLE18=Cuckoo In The Clock
TTITLE19=Farewell Blues
EXTD=YEAR: 2002
EXTT0=
EXTT1=
EXTT2=
EXTT3=
EXTT4=
EXTT5=
EXTT6=
EXTT7=
EXTT8=
EXTT9=
EXTT10=
EXTT11=
EXTT12=
EXTT13=
EXTT14=
EXTT15=
EXTT16=
EXTT17=
EXTT18=
EXTT19=
PLAYORDER=
